<svg width="24" height="24" viewBox="0 0 24 24" fill="none" xmlns="http://www.w3.org/2000/svg">
<path fill-rule="evenodd" clip-rule="evenodd" d="M2.90522 3.89419C2.63185 3.62083 2.63185 3.17761 2.90522 2.90424C3.17859 2.63088 3.6218 2.63088 3.89517 2.90424L11.5812 10.5902L19.2671 2.90429C19.5405 2.63093 19.9837 2.63093 20.257 2.90429C20.5304 3.17766 20.5304 3.62088 20.257 3.89424L12.5711 11.5802L20.257 19.2661C20.5304 19.5395 20.5304 19.9827 20.257 20.2561C19.9837 20.5294 19.5405 20.5294 19.2671 20.2561L11.5812 12.5701L3.89517 20.2561C3.6218 20.5295 3.17859 20.5295 2.90522 20.2561C2.63185 19.9827 2.63185 19.5395 2.90522 19.2662L10.5912 11.5802L2.90522 3.89419Z" fill="#757575"/>
</svg>
